PathFileType	4	(X/Y/Z)	C:\Users\willi\Documents\UniDataLokal\DATA_Hans_PhD\TD01\3DGAIT_A_W12\marker_experimental.trc
DataRate	CameraRate	NumFrames	NumMarkers	Units	OrigDataRate	OrigDataStartFrame	OrigNumFrames
100.000000	100.000000	4	76	mm	100.000000	87	174
Frame#	Time	RBAK			C7			CLAV			T10			STRN			RASI			RPSI			LPSI			LASI			RTHI1			RTHI2			RTHI3			RTHI			RKNE			RKNEM			RPAT			RTIB1			RTIB2			RTIB3			RTIB			RANK			RANKM			RHEEL			RTOE			RM5			LTHI1			LTHI2			LTHI3			LTHI			LKNE			LKNEM			LPAT			LTIB1			LTIB2			LTIB3			LTIB			LANK			LANKM			LHEEL			LTOE			LM5			*41			*42			*43			*44			*45			*46			*47			*48			*49			*50			*51			*52			*53			*54			*55			*56			*57			*58			*59			*60			*61			*62			*63			*64			*65			*66			*67			*68			*69			*70			*71			*72			*73			*74			*75			
		X1	Y1	Z1	X2	Y2	Z2	X3	Y3	Z3	X4	Y4	Z4	X5	Y5	Z5	X6	Y6	Z6	X7	Y7	Z7	X8	Y8	Z8	X9	Y9	Z9	X10	Y10	Z10	X11	Y11	Z11	X12	Y12	Z12	X13	Y13	Z13	X14	Y14	Z14	X15	Y15	Z15	X16	Y16	Z16	X17	Y17	Z17	X18	Y18	Z18	X19	Y19	Z19	X20	Y20	Z20	X21	Y21	Z21	X22	Y22	Z22	X23	Y23	Z23	X24	Y24	Z24	X25	Y25	Z25	X26	Y26	Z26	X27	Y27	Z27	X28	Y28	Z28	X29	Y29	Z29	X30	Y30	Z30	X31	Y31	Z31	X32	Y32	Z32	X33	Y33	Z33	X34	Y34	Z34	X35	Y35	Z35	X36	Y36	Z36	X37	Y37	Z37	X38	Y38	Z38	X39	Y39	Z39	X40	Y40	Z40	X41	Y41	Z41	X42	Y42	Z42	X43	Y43	Z43	X44	Y44	Z44	X45	Y45	Z45	X46	Y46	Z46	X47	Y47	Z47	X48	Y48	Z48	X49	Y49	Z49	X50	Y50	Z50	X51	Y51	Z51	X52	Y52	Z52	X53	Y53	Z53	X54	Y54	Z54	X55	Y55	Z55	X56	Y56	Z56	X57	Y57	Z57	X58	Y58	Z58	X59	Y59	Z59	X60	Y60	Z60	X61	Y61	Z61	X62	Y62	Z62	X63	Y63	Z63	X64	Y64	Z64	X65	Y65	Z65	X66	Y66	Z66	X67	Y67	Z67	X68	Y68	Z68	X69	Y69	Z69	X70	Y70	Z70	X71	Y71	Z71	X72	Y72	Z72	X73	Y73	Z73	X74	Y74	Z74	X75	Y75	Z75	X76	Y76	Z76	

88	0.87	-168.8927154541015	1204.046630859375	303.5726623535156	-184.840606689453	1228.429809570312	186.9520111083984	-69.69431304931635	1167.138916015625	176.2038421630859	-219.9620513916015	966.414794921875	194.4510498046875	-14.45907211303706	962.2105712890625	166.3424835205078	-64.79130554199214	862.0030517578125	267.7843322753906	-227.7356872558593	862.5200805664062	239.9635772705078	-249.2084503173828	874.0687866210938	163.0282592773437	-132.6338806152343	871.577392578125	48.69171905517577	-93.36390686035153	614.8074340820312	304.5186767578125	-25.10110473632811	600.1348876953125	316.9882202148438	-29.80645370483397	536.430908203125	306.3721923828125	-16.20110702514647	570.4659423828125	349.6151123046875	26.44036102294923	465.9598083496094	304.4376525878906	53.99137115478517	457.5884094238281	199.1118774414062	108.0265121459961	483.1824340820312	261.6502990722656	14.80685234069824	268.0573120117188	249.7472534179688	-10.94113159179688	230.6915588378906	298.0038452148438	-18.75611305236817	183.0277862548828	249.3115386962891	-68.30370330810547	215.4507904052734	342.6638793945312	-87.2960205078125	122.3419189453125	296.5811767578125	-60.27609252929688	123.3821411132812	224.5516204833984	-136.9059600830078	113.658935546875	248.6554412841797	19.12833023071288	47.05825424194336	287.122314453125	-17.58984947204591	37.3660774230957	314.3727416992188	-271.7739257812499	598.8419189453125	83.44361114501952	-238.6273651123047	544.1075439453125	64.28390502929686	-274.1327514648437	501.8146667480469	100.9283447265625	-231.6056823730468	519.4891357421875	31.7658290863037	-239.6665649414062	433.6564636230469	84.13381195068358	-224.0137634277343	434.3100891113281	192.6775512695312	-170.4653930664062	438.9723510742188	136.5961456298828	-250.8199615478515	241.2656402587891	153.8712310791015	-283.1663208007812	196.8461456298828	107.6394653320312	-278.8033752441406	146.1597595214844	165.103775024414	-331.9676513671875	171.5936279296875	73.36402130126952	-347.4660339355469	78.92666625976564	128.6383514404297	-318.4636535644531	92.52662658691408	200.4739074707031	-389.2246704101562	62.17121505737307	184.3949279785156	-214.8919067382812	31.67764091491701	140.3539581298828	-251.5217742919922	21.03724479675294	104.1465454101562	nan	nan	nan	nan	nan	nan	nan	nan	nan	nan	nan	nan	nan	nan	nan	nan	nan	nan	nan	nan	nan	nan	nan	nan	nan	nan	nan	nan	nan	nan	nan	nan	nan	nan	nan	nan	nan	nan	nan	nan	nan	nan	nan	nan	nan	nan	nan	nan	nan	nan	nan	nan	nan	nan	nan	nan	nan	nan	nan	nan	nan	nan	nan	nan	nan	nan	nan	nan	nan	nan	nan	nan	nan	nan	nan	nan	nan	nan	nan	nan	nan	nan	nan	nan	nan	nan	nan	nan	nan	nan	nan	nan	nan	nan	nan	nan	nan	nan	nan	nan	nan	nan	nan	nan	nan	
89	0.88	-154.4250183105468	1203.223510742188	303.3025207519531	-169.9933319091796	1227.551879882812	186.8804016113281	-54.96369171142572	1165.62744140625	176.5965576171875	-206.3031768798828	965.7767333984375	195.3393707275391	-0.8258039355277528	960.1807250976562	165.7200317382812	-50.90031051635739	860.2178955078125	267.4791259765625	-213.9319152832031	861.69921875	241.3322143554688	-236.1658935546874	873.635498046875	164.6756591796875	-120.4302825927734	870.3604736328125	49.20328903198241	-78.41156005859372	613.4862670898438	303.1353454589844	-9.868996620178205	599.6073608398438	314.9703369140625	-13.67583179473876	535.9547119140625	303.5956115722656	-0.5747444629669053	569.4965209960938	346.9977722167969	44.70329666137696	466.3897094726562	301.5265808105469	71.15673828125001	459.3939208984375	196.0498962402344	125.0408706665039	486.7673034667969	257.7298583984375	47.11015319824219	267.7036437988281	247.7246246337891	25.09185409545898	228.6761016845703	296.4493713378906	20.62958145141601	180.2275238037109	248.0673370361328	-30.326566696167	208.9648742675781	341.8148193359375	-42.27341079711915	114.5531616210938	296.2953186035156	-16.03506469726563	117.2601089477539	223.9469146728516	-91.4529266357422	102.0081405639648	248.8174743652344	69.46777343749999	46.86664581298827	286.2397766113281	33.68457031249998	34.72443008422852	313.6926879882812	-265.7567443847656	600.7943725585938	84.20945739746092	-233.9974517822265	545.2451171875	65.06598663330077	-270.6916809082031	503.8633422851562	101.5892486572265	-227.5963439941406	520.5650024414062	32.54293060302733	-237.8395385742187	434.9112243652344	84.90023040771483	-222.4330139160156	435.0198974609375	193.5169067382812	-169.2504272460937	438.3349304199219	137.3940887451172	-249.8014373779297	242.5756225585938	154.0037384033203	-282.4701843261719	198.4292602539063	107.6625213623047	-278.3919372558594	147.3807983398438	165.1481170654297	-331.5619812011719	173.4991455078125	73.5620651245117	-347.0746154785156	80.66820526123048	128.6192932128906	-317.8422546386719	93.9561233520508	200.3180084228515	-388.6419677734375	64.25393676757815	184.4189758300781	-214.8651580810547	31.64327621459962	140.3397369384766	-251.5969390869141	21.08726501464845	104.2654800415039	nan	nan	nan	nan	nan	nan	nan	nan	nan	nan	nan	nan	nan	nan	nan	nan	nan	nan	nan	nan	nan	nan	nan	nan	nan	nan	nan	nan	nan	nan	nan	nan	nan	nan	nan	nan	nan	nan	nan	nan	nan	nan	nan	nan	nan	nan	nan	nan	nan	nan	nan	nan	nan	nan	nan	nan	nan	nan	nan	nan	nan	nan	nan	nan	nan	nan	nan	nan	nan	nan	nan	nan	nan	nan	nan	nan	nan	nan	nan	nan	nan	nan	nan	nan	nan	nan	nan	nan	nan	nan	nan	nan	nan	nan	nan	nan	nan	nan	nan	nan	nan	nan	nan	nan	nan	
90	0.89	-139.7709655761718	1202.102416992188	303.0423278808594	-154.9868927001952	1226.356811523438	186.7835693359375	-40.07024383544916	1163.707763671875	176.9742431640625	-192.624038696289	964.8292236328125	196.2225189208984	12.87817764282231	957.6886596679688	165.2956848144531	-37.03718566894528	858.0139770507812	267.39208984375	-200.1417083740234	860.4144287109375	242.7006530761719	-223.0630340576171	872.7239990234375	166.3361663818359	-108.1302108764648	868.8418579101562	49.85900878906249	-64.07822418212888	611.3472290039062	301.669677734375	4.682727336883562	598.0547485351562	312.9485473632812	1.618092417716994	534.4710693359375	300.6968383789062	14.12648200988771	567.3300170898438	344.3269348144531	62.20932388305665	465.9328918457031	298.6022338867188	87.27290344238283	460.1234130859375	192.8501434326172	141.0606689453125	489.21484375	253.525634765625	78.67653656005859	267.5829772949219	245.5774536132812	60.7147102355957	227.1847229003906	294.7431030273438	59.5012321472168	178.2144317626953	246.7273712158203	7.804919242858878	203.2518157958984	341.0294494628906	2.754748582839954	108.0460052490234	296.0089111328125	27.90859222412109	112.3366470336914	223.285400390625	-45.81204986572266	91.94374084472656	249.1255645751953	119.0964660644531	47.68827438354491	284.8286437988281	84.41519927978514	33.3255500793457	312.6293334960938	-259.2852783203124	602.5335083007812	84.98963165283202	-228.9960632324218	546.2262573242188	65.71439361572264	-266.7508850097656	505.7505493164062	102.189323425293	-223.257339477539	521.5032958984375	33.17011642456053	-235.5369262695312	436.0578002929688	85.50777435302733	-220.1823272705078	435.5327453613281	194.1376495361328	-167.5196838378906	437.4220275878906	137.8477172851562	-248.5241241455078	243.7856140136719	153.9568328857422	-281.612548828125	199.9412689208985	107.5346145629883	-277.8115234375	148.5532531738282	165.0106201171875	-331.0665893554688	175.3953399658203	73.63871765136717	-346.6264343261719	82.40984344482423	128.4934997558593	-317.158447265625	95.38840484619142	200.0261077880859	-388.0552673339844	66.40409088134768	184.3101959228515	-214.8518218994141	31.59813499450685	140.2683258056641	-251.6713562011719	21.10819816589357	104.2998657226562	nan	nan	nan	nan	nan	nan	nan	nan	nan	nan	nan	nan	nan	nan	nan	nan	nan	nan	nan	nan	nan	nan	nan	nan	nan	nan	nan	nan	nan	nan	nan	nan	nan	nan	nan	nan	nan	nan	nan	nan	nan	nan	nan	nan	nan	nan	nan	nan	nan	nan	nan	nan	nan	nan	nan	nan	nan	nan	nan	nan	nan	nan	nan	nan	nan	nan	nan	nan	nan	nan	nan	nan	nan	nan	nan	nan	nan	nan	nan	nan	nan	nan	nan	nan	nan	nan	nan	nan	nan	nan	nan	nan	nan	nan	nan	nan	nan	nan	nan	nan	nan	nan	nan	nan	nan	
91	0.9	-124.9570541381835	1200.716186523438	302.8000183105469	-139.8260498046874	1224.87109375	186.6663055419922	-25.01879882812494	1161.423095703125	177.3579864501953	-178.9007110595703	963.5913696289062	197.0785217285156	26.6481266021729	954.7962646484375	165.0503997802734	-23.16201972961422	855.4735717773438	267.4937133789062	-186.3444366455078	858.690185546875	244.0622711181641	-209.8758850097656	871.3364868164062	168.0011138916016	-95.77710723876947	867.0551147460938	50.59726333618163	-50.15159225463866	608.5224609375	300.2935791015625	18.79664611816408	595.6345825195312	311.0173034667969	16.29024887084962	532.1222534179688	297.8758544921875	28.26350212097169	564.2083129882812	341.7677307128906	79.08283996582033	464.6750793457031	295.7320861816406	102.3436889648438	459.7570190429688	189.5449676513672	156.1878204345703	490.5470581054688	249.0024108886719	109.2961578369141	267.7157897949219	243.2926788330078	95.59703826904297	226.2623748779297	292.8439636230469	97.49303436279297	177.0333404541016	245.2257843017578	45.72576522827148	198.4440765380859	340.2210998535156	47.25638198852538	102.9135818481445	295.5930480957031	71.07537841796874	108.6971740722656	222.4642028808594	-0.5600558519363505	83.62257385253906	249.4136657714844	167.547134399414	49.52190017700195	282.7704467773438	134.0762939453125	33.16427612304687	311.060791015625	-252.2738800048828	604.0482788085938	85.83142852783202	-223.544204711914	547.0459594726562	66.25375366210936	-262.2040710449218	507.4577941894531	102.7732543945312	-218.5170593261718	522.2949829101562	33.6691207885742	-232.6542358398437	437.0815124511719	85.97523498535155	-217.1247406005859	435.8280944824219	194.557861328125	-165.0817413330078	436.2626342773438	137.9661102294922	-246.928482055664	244.878173828125	153.7490997314453	-280.5374450683594	201.3777160644532	107.2810668945312	-276.9529113769531	149.6943664550782	164.6773223876953	-330.4209899902344	177.2945098876953	73.61948394775389	-346.1034240722656	84.16072845458986	128.2813262939453	-316.378662109375	96.82120513916017	199.623291015625	-387.4474792480469	68.6337585449219	184.0894165039062	-214.8383636474609	31.53865814208986	140.1426391601562	-251.7416687011719	21.09475517272951	104.2641143798828	nan	nan	nan	nan	nan	nan	nan	nan	nan	nan	nan	nan	nan	nan	nan	nan	nan	nan	nan	nan	nan	nan	nan	nan	nan	nan	nan	nan	nan	nan	nan	nan	nan	nan	nan	nan	nan	nan	nan	nan	nan	nan	nan	nan	nan	nan	nan	nan	nan	nan	nan	nan	nan	nan	nan	nan	nan	nan	nan	nan	nan	nan	nan	nan	nan	nan	nan	nan	nan	nan	nan	nan	nan	nan	nan	nan	nan	nan	nan	nan	nan	nan	nan	nan	nan	nan	nan	nan	nan	nan	nan	nan	nan	nan	nan	nan	nan	nan	nan	nan	nan	nan	nan	nan	nan	
